<svg width="1440" height="722" fill="none" xmlns="http://www.w3.org/2000/svg"><mask id="a" style="mask-type:alpha" maskUnits="userSpaceOnUse" x="0" y="0" width="1440" height="722"><path fill="url(#paint0_linear_387_6554)" d="M0 0h1440v722H0z"/></mask><g mask="url(#a)"><path opacity=".6" d="M243.318 176.164s217.648 272.355 457.491 210.382C940.651 324.574 1118.1-90.72 1478.91 136.336M250.241 175.073s213.465 284.385 453.328 226.265c239.863-58.12 420.621-470.54 778.611-237.711M257.164 173.982s209.279 296.434 449.152 242.145c239.884-54.266 423.954-463.81 779.114-225.23M264.086 172.891s205.096 308.463 444.991 258.028c239.907-50.434 427.283-457.084 779.613-212.73M271.009 171.8s200.9 320.49 440.825 273.93C951.749 399.148 1142.44-4.647 1491.94 245.499m-1214.008-74.79s196.714 332.54 436.662 289.812C954.53 417.792 1148.54 16.873 1495.2 272.771M284.854 169.618s192.532 344.569 432.488 305.693c239.956-38.876 437.268-436.921 781.108-175.25M291.776 168.527s188.349 356.598 428.326 321.575C960.078 455.079 1160.71 59.91 1501.71 327.353M298.699 167.436s184.163 368.647 424.163 337.458c239.997-31.17 443.938-423.486 782.108-150.269M305.622 166.345s179.98 380.677 419.984 353.358c240.018-27.317 447.264-416.758 782.614-137.768M312.544 165.255S488.342 557.96 728.367 534.494c240.025-23.465 450.603-410.029 783.113-125.267M319.467 164.164s171.598 404.753 411.66 385.122c240.049-19.632 453.923-403.303 783.623-112.787M326.39 163.073s167.415 416.782 407.498 401.004c240.069-15.779 457.252-396.575 784.122-100.286M333.312 161.982s163.233 428.811 403.323 416.885C976.725 566.941 1197.22 189 1521.26 491.08M340.235 160.891s159.047 440.86 399.157 432.787c240.111-8.073 463.918-383.14 785.128-75.306M347.154 159.82S502.018 612.709 742.15 608.489c240.131-4.22 467.24-376.413 785.61-62.807M354.077 158.729s150.681 464.919 390.82 464.55c240.152-.367 470.573-369.684 786.113-50.307" stroke="#1C5EE8" stroke-miterlimit="10"/></g><defs><linearGradient id="paint0_linear_387_6554" x1="1440" y1="115.876" x2="671" y2="115.876" gradientUnits="userSpaceOnUse"><stop stop-color="#D9D9D9"/><stop offset="1" stop-color="#D9D9D9" stop-opacity="0"/></linearGradient></defs></svg>